<?xml version="1.0" encoding="UTF-8"?><svg id="a" xmlns="http://www.w3.org/2000/svg" viewBox="0 0 2000 2000"><path d="M1308.373,1244.094l-48.195.928-5.749-19.495-120.441-165.149-.98,151.174,17.327,10.261c3.823,2.264,9.379,6.53,11.569,9.48,2.182,2.941-5.271,13.198-9.384,13.244l-57.068.638c-4.909.055-14.452-5.745-14.171-9.946.28-4.201,6.249-11.873,10.121-13.435l17.976-7.255.164-181.662-23.953-30.276c-3.012-3.807-1.898-18.116,2.86-18.059l45.299.541,139.062,190.121.652-158.113-17.327-10.597c-4.428-2.708-8.901-5.643-11.423-7.962-2.539-2.334,4.106-14.043,7.835-14.057l63.782-.235c3.851-.014,10.922,11.05,8.535,13.814-12.146,14.065-23.264,8.768-28.391,19.422l-.036,182.617,13.87,25.162c2.343,4.251,2.961,18.744-1.935,18.839Z"/><path d="M581.915,1134.814c-1.255-8.739-7.101-19.995-12.86-23.615-12.006-7.546-42.798,1.147-43.112,17.133l-1.684,85.611c-.071,3.629,7.285,10.706,10.053,13.097l8.996,7.773c2.041,1.763-5.356,10.019-8.283,10.021l-60.627.06c-2.586.003-10.131-3.859-9.854-6.362.37-3.339,3.923-9.614,6.645-11.673l13.007-9.836-.223-210.633-14.101-5.649c-2.113-.847-6.491-4.537-8.085-6.187-1.609-1.666,3.801-9.066,6.349-9.996l42.693-15.584c4.464-1.629,13.834,6.465,13.832,11.453l-.042,124.879c14.489-11.516,27.905-21.126,44.682-25.808,23.271-6.495,46.482,8.804,49.829,33.093l13.236,96.053c.871,6.322,5.95,14.968,10.366,17.536l8.679,5.046c2.531,1.472-1.882,13.37-4.815,13.379l-65.802.183c-2.355.007-9.721-9.012-7.791-10.453l10.706-7.992c3.266-2.438,10.1-8.697,9.53-12.665l-11.324-78.863Z"/><path d="M371.935,1210.537c3.951,10.326,15.37,6.567,31.833,17.568,3.208,2.144-1.254,16.276-5.896,16.311l-90.675.685c-3.938.03-11.861-6.891-12.02-10.585-.724-16.782,24.257-9.584,32.5-23.451l-.034-203.256c-12.318-.491-27.871-1.55-43.551,2.402-16.136,4.067-15.317,45.494-33.127,47.209-4.226.407-10.861-9.455-9.778-14.004l13.47-56.583c1.801-7.563,12.759-11.128,19.202-9.079l21.079,6.703,113.358-.199,17.707-6.695c5.824-2.202,17.272,2.04,19.005,9.353l13.286,56.088c.911,3.846-2.814,12.054-5.949,13.46-19.318,8.664-17.921-38.594-37.972-46.191-12.715-4.817-31.191-2.883-42.357-1.943l-.084,202.206Z"/><path d="M934.801,1240.26c-13.678-8.054-18.514-25.127-16.6-40.02,4.457-34.669,49.17-46.419,94.103-39.944l-.148-42.924c-.052-15.047-14.492-23.645-28.18-22.204-12.804,1.347-19.917,8.262-19.391,21.931.176,4.575-1.478,14.445-4.005,17.672-2.527,3.227-9.808,5.058-17.054,6.168-8.409,1.288-18.962-7.53-18.836-16.742.521-38.054,55.292-55.566,99.825-41.082,15.547,5.056,27.565,21.801,27.786,38.554l1.329,100.541,22.894-5.268c1.715,17.493-8.759,28.074-22.503,31.063-14.598,3.175-29.99-2.226-37.399-19.074-23.482,18.747-53.552,27.977-81.821,11.33ZM1012.828,1212.87l-.596-37.61-31.415-1.579c-9.544-.48-21.186,11.836-22.748,20.513-1.411,7.839,2.454,22.126,9.223,26.052,16.262,9.433,34.627,3.648,45.536-7.376Z"/><path d="M1504.892,1163.222c0,46.79-37.931,84.721-84.721,84.721s-84.721-37.931-84.721-84.721,37.931-84.721,84.721-84.721,84.721,37.931,84.721,84.721ZM1443.591,1114.648c-8.305-11.197-24.39-16.962-36.268-14.622-36.795,7.246-40.049,74.725-8.635,113.688,8.722,10.818,25.739,15.441,36.994,12.137,35.492-10.42,34.696-75.086,7.908-111.202Z"/><path d="M726.709,1215.671c48.861,15.196,68.885-35.319,72.278-28.015,11.213,24.143-17.191,53.513-44.566,58.621-31.118,5.806-64.349-.514-83.457-27.672-23.747-33.752-22.254-82.271,4.205-114.27,20.627-24.946,55.374-31.244,85.286-22,27.252,8.422,43.41,32.978,42.13,62.091-.462,10.504-10.796,19.267-21.057,19.254l-89.044-.116c-.504,25.061,14.723,46.042,34.225,52.107ZM759.063,1147.185c4.149-17.198,1.861-33.026-13.103-43.099-7.142-4.808-26.952-4.606-34.218.729-14.532,10.668-19.383,25.713-20.279,42.565l67.601-.194Z"/><path d="M1690.04,1215.769c47.854,15.389,69.05-35.114,72.334-28.123,11.18,23.796-16.674,53.295-44.575,58.567-31.119,5.88-64.352-.44-83.463-27.606-23.747-33.754-22.254-82.275,4.205-114.273,20.627-24.946,55.373-31.244,85.286-22,27.252,8.422,43.41,32.978,42.13,62.091-.462,10.503-10.796,19.267-21.057,19.254l-89.045-.113c-.499,25.052,14.755,45.954,34.185,52.202ZM1722.435,1147.185c4.149-17.198,1.861-33.026-13.103-43.099-7.142-4.808-26.952-4.606-34.218.729-14.532,10.668-19.383,25.713-20.279,42.565l67.601-.194Z"/><path d="M1600.898,1211.612l9.733-6.19c2.136-1.358,3.212,10.718,2.37,13.997-4.574,17.808-28.527,32.915-50.654,28.973-19.114-3.405-34.057-17.163-34.108-38.816l-.221-95.365c-.033-14.351-24.049-8.597-22.988-22.694,1.07-14.218,25.795-4.401,31.475-19.001l9.091-23.373c2.097-5.39,20.174-9.203,20.605-3.183l2.546,35.563,35.025.424c2.824.034,8.546,3.805,10.365,5.603,2.424,2.397-3.77,14.047-7.166,14.34l-38.942,3.359.152,99.098c.007,4.836,7.674,13.719,12.195,13.648,5.843-.092,16.072-3.553,20.522-6.384Z"/><path d="M908.727,1204.08c6.224,18.47-3.495,30.924-17.691,38.613-17.288,9.364-40.204,8.686-55.314-6.75-5.132-5.243-10.346-21.279-10.355-29.268l-.112-98.972-14.571-5.615c-3.138-1.209-7.93-7.583-8.03-10.859-.417-13.665,23.415-2.152,32.044-20.819l11.367-24.591c1.809-3.915,17.857-3.544,18.055.748l1.609,34.857,35.157.544c2.729.042,8.758,3.759,10.711,5.551,2.604,2.388-4.065,14.312-7.587,14.587l-38.661,3.013.034,95.758c.001,3.909,3.524,11.6,6.375,14.166,2.853,2.568,14.04,4.118,17.265,1.997l19.703-12.961Z"/><path d="M86.067,1476.259v-.125c0-12.364,9.258-22.492,22.368-22.492,8.077,0,12.924,2.796,17.087,6.772l-4.908,5.654c-3.542-3.231-7.208-5.344-12.24-5.344-8.202,0-14.291,6.772-14.291,15.285v.124c0,8.513,6.026,15.409,14.353,15.409,5.344,0,8.761-2.112,12.489-5.592l4.908,4.971c-4.535,4.722-9.506,7.704-17.646,7.704-12.737,0-22.12-9.879-22.12-22.367Z" fill="#858d9b"/><path d="M146.96,1454.388h7.643v36.534h22.865v6.959h-30.508v-43.493Z" fill="#858d9b"/><path d="M198.843,1454.388h7.643v43.493h-7.643v-43.493Z" fill="#858d9b"/><path d="M231.152,1454.388h7.083l23.3,30.072v-30.072h7.519v43.493h-6.4l-23.983-30.942v30.942h-7.518v-43.493Z" fill="#858d9b"/><path d="M293.722,1454.388h7.643v43.493h-7.643v-43.493Z" fill="#858d9b"/><path d="M324.105,1476.259v-.125c0-12.364,9.258-22.492,22.368-22.492,8.077,0,12.924,2.796,17.087,6.772l-4.909,5.654c-3.541-3.231-7.207-5.344-12.24-5.344-8.201,0-14.291,6.772-14.291,15.285v.124c0,8.513,6.027,15.409,14.354,15.409,5.343,0,8.761-2.112,12.488-5.592l4.909,4.971c-4.536,4.722-9.507,7.704-17.646,7.704-12.737,0-22.119-9.879-22.119-22.367Z" fill="#858d9b"/><path d="M400.345,1454.076h7.083l19.138,43.805h-8.077l-4.412-10.501h-20.566l-4.474,10.501h-7.828l19.137-43.805ZM411.28,1480.607l-7.519-17.397-7.456,17.397h14.975Z" fill="#858d9b"/><path d="M447.07,1454.388h7.643v36.534h22.865v6.959h-30.508v-43.493Z" fill="#858d9b"/><path d="M527.286,1491.543l4.598-5.468c4.163,3.604,8.389,5.654,13.732,5.654,4.722,0,7.704-2.236,7.704-5.468v-.124c0-3.106-1.739-4.784-9.817-6.648-9.258-2.236-14.477-4.971-14.477-12.986v-.124c0-7.456,6.213-12.613,14.85-12.613,6.338,0,11.37,1.927,15.782,5.468l-4.101,5.778c-3.915-2.92-7.829-4.474-11.806-4.474-4.474,0-7.083,2.299-7.083,5.157v.124c0,3.355,1.988,4.847,10.376,6.835,9.195,2.237,13.918,5.53,13.918,12.737v.125c0,8.139-6.399,12.985-15.533,12.985-6.648,0-12.924-2.299-18.144-6.959Z" fill="#858d9b"/><path d="M581.096,1476.259v-.125c0-12.24,9.444-22.492,22.803-22.492s22.679,10.128,22.679,22.368v.124c0,12.24-9.444,22.492-22.803,22.492s-22.679-10.127-22.679-22.367ZM618.562,1476.259v-.125c0-8.45-6.151-15.409-14.788-15.409s-14.664,6.835-14.664,15.285v.124c0,8.45,6.151,15.409,14.788,15.409s14.664-6.835,14.664-15.284Z" fill="#858d9b"/><path d="M648.884,1454.388h32.372v6.959h-24.729v11.867h21.934v6.959h-21.934v17.708h-7.643v-43.493Z" fill="#858d9b"/><path d="M713.317,1461.471h-13.855v-7.083h35.354v7.083h-13.855v36.41h-7.643v-36.41Z" fill="#858d9b"/><path d="M752.462,1454.388h8.264l10.377,32.247,10.687-32.372h6.462l10.688,32.372,10.376-32.247h8.016l-15.099,43.804h-6.648l-10.687-31.253-10.688,31.253h-6.648l-15.099-43.804Z" fill="#858d9b"/><path d="M848.026,1454.076h7.083l19.137,43.805h-8.077l-4.411-10.501h-20.566l-4.474,10.501h-7.829l19.138-43.805ZM858.962,1480.607l-7.519-17.397-7.456,17.397h14.975Z" fill="#858d9b"/><path d="M894.752,1454.388h19.386c5.468,0,9.755,1.615,12.551,4.349,2.299,2.361,3.604,5.593,3.604,9.383v.124c0,7.146-4.287,11.433-10.314,13.172l11.743,16.466h-9.071l-10.687-15.161h-9.569v15.161h-7.642v-43.493ZM913.578,1475.947c5.468,0,8.947-2.857,8.947-7.27v-.124c0-4.66-3.355-7.207-9.01-7.207h-11.122v14.601h11.185Z" fill="#858d9b"/><path d="M952.724,1454.388h32.247v6.834h-24.605v11.309h21.81v6.896h-21.81v11.619h24.916v6.835h-32.558v-43.493Z" fill="#858d9b"/><path d="M1039.09,1454.388h32.372v6.959h-24.729v11.867h21.934v6.959h-21.934v17.708h-7.643v-43.493Z" fill="#858d9b"/><path d="M1090.6,1476.259v-.125c0-12.24,9.444-22.492,22.803-22.492s22.679,10.128,22.679,22.368v.124c0,12.24-9.444,22.492-22.803,22.492s-22.679-10.127-22.679-22.367ZM1128.067,1476.259v-.125c0-8.45-6.151-15.409-14.788-15.409s-14.663,6.835-14.663,15.285v.124c0,8.45,6.15,15.409,14.787,15.409s14.664-6.835,14.664-15.284Z" fill="#858d9b"/><path d="M1158.389,1454.388h19.386c5.468,0,9.755,1.615,12.551,4.349,2.3,2.361,3.604,5.593,3.604,9.383v.124c0,7.146-4.287,11.433-10.314,13.172l11.743,16.466h-9.071l-10.688-15.161h-9.568v15.161h-7.643v-43.493ZM1177.216,1475.947c5.468,0,8.947-2.857,8.947-7.27v-.124c0-4.66-3.355-7.207-9.01-7.207h-11.122v14.601h11.185Z" fill="#858d9b"/><path d="M1245.129,1491.543l4.598-5.468c4.163,3.604,8.388,5.654,13.731,5.654,4.723,0,7.705-2.236,7.705-5.468v-.124c0-3.106-1.74-4.784-9.817-6.648-9.258-2.236-14.478-4.971-14.478-12.986v-.124c0-7.456,6.214-12.613,14.851-12.613,6.337,0,11.37,1.927,15.782,5.468l-4.102,5.778c-3.914-2.92-7.828-4.474-11.805-4.474-4.475,0-7.084,2.299-7.084,5.157v.124c0,3.355,1.988,4.847,10.377,6.835,9.195,2.237,13.918,5.53,13.918,12.737v.125c0,8.139-6.4,12.985-15.534,12.985-6.647,0-12.924-2.299-18.143-6.959Z" fill="#858d9b"/><path d="M1300.18,1479.427v-25.039h7.643v24.729c0,8.078,4.163,12.365,10.998,12.365,6.772,0,10.936-4.039,10.936-12.055v-25.039h7.643v24.667c0,12.985-7.332,19.51-18.702,19.51-11.309,0-18.517-6.524-18.517-19.138Z" fill="#858d9b"/><path d="M1360.947,1454.388h17.149c10.189,0,16.527,5.778,16.527,14.539v.124c0,9.755-7.829,14.85-17.397,14.85h-8.637v13.98h-7.643v-43.493ZM1377.475,1477.004c5.778,0,9.382-3.231,9.382-7.767v-.124c0-5.096-3.666-7.767-9.382-7.767h-8.886v15.657h8.886Z" fill="#858d9b"/><path d="M1415.502,1454.388h17.149c10.189,0,16.527,5.778,16.527,14.539v.124c0,9.755-7.829,14.85-17.397,14.85h-8.637v13.98h-7.643v-43.493ZM1432.03,1477.004c5.778,0,9.382-3.231,9.382-7.767v-.124c0-5.096-3.666-7.767-9.382-7.767h-8.886v15.657h8.886Z" fill="#858d9b"/><path d="M1468.131,1476.259v-.125c0-12.24,9.444-22.492,22.803-22.492s22.679,10.128,22.679,22.368v.124c0,12.24-9.444,22.492-22.803,22.492s-22.679-10.127-22.679-22.367ZM1505.598,1476.259v-.125c0-8.45-6.151-15.409-14.788-15.409s-14.664,6.835-14.664,15.285v.124c0,8.45,6.151,15.409,14.788,15.409s14.664-6.835,14.664-15.284Z" fill="#858d9b"/><path d="M1535.92,1454.388h19.386c5.468,0,9.755,1.615,12.551,4.349,2.3,2.361,3.604,5.593,3.604,9.383v.124c0,7.146-4.287,11.433-10.314,13.172l11.743,16.466h-9.071l-10.688-15.161h-9.568v15.161h-7.643v-43.493ZM1554.747,1475.947c5.468,0,8.947-2.857,8.947-7.27v-.124c0-4.66-3.355-7.207-9.01-7.207h-11.122v14.601h11.185Z" fill="#858d9b"/><path d="M1604.454,1461.471h-13.855v-7.083h35.354v7.083h-13.855v36.41h-7.643v-36.41Z" fill="#858d9b"/><path d="M1675.288,1454.388h8.264l10.376,32.247,10.687-32.372h6.463l10.687,32.372,10.376-32.247h8.016l-15.099,43.804h-6.648l-10.687-31.253-10.688,31.253h-6.648l-15.098-43.804Z" fill="#858d9b"/><path d="M1756.685,1476.259v-.125c0-12.24,9.444-22.492,22.803-22.492s22.679,10.128,22.679,22.368v.124c0,12.24-9.444,22.492-22.803,22.492s-22.679-10.127-22.679-22.367ZM1794.152,1476.259v-.125c0-8.45-6.151-15.409-14.788-15.409s-14.664,6.835-14.664,15.285v.124c0,8.45,6.151,15.409,14.788,15.409s14.664-6.835,14.664-15.284Z" fill="#858d9b"/><path d="M1824.475,1454.388h19.386c5.468,0,9.755,1.615,12.551,4.349,2.3,2.361,3.604,5.593,3.604,9.383v.124c0,7.146-4.287,11.433-10.314,13.172l11.743,16.466h-9.071l-10.688-15.161h-9.568v15.161h-7.643v-43.493ZM1843.302,1475.947c5.468,0,8.947-2.857,8.947-7.27v-.124c0-4.66-3.355-7.207-9.01-7.207h-11.122v14.601h11.185Z" fill="#858d9b"/><path d="M1882.446,1454.388h7.643v21.871l20.629-21.871h9.506l-18.143,18.702,18.95,24.791h-9.319l-14.851-19.572-6.772,6.959v12.613h-7.643v-43.493Z" fill="#858d9b"/><path d="M1100.215,776.005c-24.47,32.014-61.367,49.852-101.879,48.162-8.499-.354-16.438-1.643-24.589-3.619-15.412-3.737-36.695-13.934-47.872-24.511l-9.773-9.248c-6.059-6.515-11.392-13.35-16.078-20.93-11.085-17.93-17.692-37.599-20.927-58.335l-2.157-19.481-.556-11.276c-.58-11.764-.328-23.182.165-34.929,1.117-26.584,7.053-57.66,20.802-80.523l3.825-6.36,6.411-9.03c4.818-6.786,10.681-12.388,16.996-17.862,8.519-7.384,17.774-13.114,28.071-17.846,31.489-14.472,69.681-14.628,101.286-.214,12.609,5.75,21.394,11.738,31.658,20.873,4.837,4.305,8.899,8.922,13.018,13.921,5.271,6.398,9.496,13.247,13.376,20.563l5.486,11.733c5.799,12.402,10.797,34.567,11.918,48.427l1.085,13.408.568,27.711-.314,13.769-1.783,20.711c-3.429,27.223-11.982,52.967-28.737,74.888ZM1068.659,770.132c6.671-6.494,12.671-13.509,17.043-21.718l4.153-7.797,5.829-14.885,2.754-10.041c5.669-24.426,5.82-52.079,4.446-77.183l-1.009-10.625-2.617-16.727-3.914-14.18c-1.404-5.087-3.224-9.899-5.798-14.49l-6.84-12.2c-6.227-9.466-13.699-17.58-22.722-24.464-4.168-3.179-8.255-5.99-12.942-8.301-5.009-2.471-9.801-4.782-15.18-6.478-14.213-4.482-28.926-5.32-43.698-3.06-18.19,2.783-36.027,11.854-49.157,24.639-11.142,10.85-19.512,23.819-25.057,38.408-6.693,17.611-9.075,35.652-9.911,54.517-.718,16.205-.348,31.943,1.094,48.062,1.561,17.456,6.155,35.568,14.373,51.047,6.1,11.49,16.983,25.855,27.512,32.947l10.043,6.765,5.819,3.077c15.198,7.327,31.746,10.456,48.711,9.037,21.371-1.788,41.778-11.47,57.066-26.351Z"/><path d="M1073.941,701.098c-4.56,12.311-13.95,21.232-27.142,22.571-4.813.489-9.305-.017-13.787-1.826-8.46-3.416-15.2-9.559-19.715-17.46l-4.654-8.143-3.614-6.668-13.412-24.985-18.516-34.262c-1.725-3.193-4.318-5.866-7.204-7.727-2.684-1.731-6.114-.946-7.697,1.716-1.649,2.774-2.59,5.811-3.605,8.885l-2.101,6.368c-.859,2.603-3.316,4.427-5.887,5.222-8.517,2.634-17.312-1.922-16.378-7.414l1.402-8.243c2.319-13.633,11.266-25.933,25.068-29.612,14.196-3.785,30.869,5.216,37.719,17.777l11.133,20.416,12.677,24.227,9.462,17.973,4.364,8.085c2.626,4.865,6.488,11.249,11.313,12.517,6.293,1.654,8.115-8.014,9.79-13.198l1.965-6.081c1.885-5.835,12.429-7.708,19.692-3.102,2.455,1.557,3.558,4.244,3.097,7.069-.888,5.452-2.058,10.733-3.97,15.897Z"/></svg>